<svg width="113" height="112" viewBox="0 0 113 112" fill="none" xmlns="http://www.w3.org/2000/svg">
<g filter="url(#filter0_d)">
<circle cx="56.5" cy="46" r="36" fill="#E3B873"/>
</g>
<path d="M56.8396 53.2782C56.4614 53.2782 56.1526 53.5775 56.1526 53.9493V55.2739C56.1526 55.6457 56.4614 55.9449 56.8396 55.9449C57.2178 55.9449 57.5265 55.6457 57.5265 55.2739V53.9493C57.5265 53.5775 57.2178 53.2782 56.8396 53.2782Z" fill="white" stroke="white" stroke-width="0.1"/>
<path d="M73.5581 44.0004L73.5581 44.0004C73.1069 41.8425 72.0951 39.8085 70.6321 38.1178C69.2237 36.4902 67.4214 35.2089 65.4118 34.4013C65.0828 33.0653 64.3927 31.6877 63.0386 30.6503C61.7205 29.6405 60.3931 29.4459 60.3338 29.4375L60.3338 29.4375C60.1374 29.4102 59.9377 29.4672 59.7872 29.5945C59.6366 29.7218 59.5498 29.9068 59.5498 30.1018V33.4054H57.3254C56.736 31.4913 54.9142 30.0933 52.7634 30.0933C50.5652 30.0933 48.7096 31.5532 48.1632 33.5323C45.0152 33.9581 42.1197 35.4488 39.9692 37.7623L40.0059 37.7963L39.9692 37.7623C37.7 40.2038 36.45 43.3646 36.45 46.6624C36.45 54.0521 40.3839 60.0623 41.5891 61.7278C41.9705 62.2549 42.5945 62.5691 43.2582 62.5691H45.9692C47.0961 62.5691 48.015 61.675 48.015 60.5732V59.7716C48.6849 59.8693 49.3649 59.9194 50.0457 59.9194H56.1528V60.5732C56.1528 61.675 57.0717 62.5691 58.1986 62.5691H61.1765C62.134 62.5691 62.9756 61.9067 63.1767 60.9917L63.4969 59.5352C67.673 58.5336 71.0324 55.6771 72.6959 51.9705H75.1837C75.9359 51.9705 76.55 51.3736 76.55 50.6371V45.3377C76.55 44.981 76.4075 44.6458 76.1493 44.3941C75.8912 44.1425 75.5483 44.0041 75.1838 44.0041H75.1837H75.1837H75.1837H75.1836H75.1836H75.1836H75.1835L73.5592 44.0043C73.5587 44.003 73.5584 44.0017 73.5581 44.0004ZM75.1762 50.5869H75.1761V50.6284H73.2111C73.5469 49.5848 73.7538 48.4889 73.8138 47.3596C73.8337 46.9883 73.5411 46.6738 73.1633 46.6547C72.7857 46.636 72.4615 46.9187 72.4418 47.29C72.1746 52.3126 68.6861 56.6062 63.8218 58.0564L64.6936 54.0901C64.7736 53.7265 64.5358 53.3704 64.1656 53.2931C63.7961 53.2156 63.4301 53.4453 63.3503 53.8084L61.8334 60.7099C61.7678 61.0085 61.4919 61.227 61.1765 61.227H58.1984C57.8268 61.227 57.5266 60.9325 57.5266 60.5732V57.9235C57.5266 57.5517 57.2178 57.2524 56.8396 57.2524C56.4614 57.2524 56.1527 57.5517 56.1527 57.9235V58.5773H50.0455C49.3637 58.5773 48.6831 58.5213 48.0148 58.4125V53.949C48.0148 53.5772 47.7061 53.278 47.3279 53.278C46.9497 53.278 46.6409 53.5772 46.6409 53.949V60.5732C46.6409 60.9325 46.3407 61.2271 45.9691 61.2271H43.2582C43.0355 61.2271 42.8366 61.127 42.7111 60.9533L42.7111 60.9533C41.5641 59.3681 37.8239 53.6542 37.8239 46.6624C37.8239 43.699 38.9469 40.8586 40.9864 38.6645L40.9498 38.6304L40.9864 38.6645C42.8401 36.67 45.3092 35.3559 48.0037 34.9137C48.0187 35.3017 48.0834 35.6852 48.195 36.055H48.0074C47.6292 36.055 47.3205 36.3542 47.3205 36.726C47.3205 37.0978 47.6292 37.3971 48.0074 37.3971H57.5191C57.8974 37.3971 58.2061 37.0978 58.2061 36.726C58.2061 36.3542 57.8974 36.055 57.5191 36.055H57.3315C57.4592 35.6325 57.5258 35.192 57.5266 34.7474H59.5498V36.0636C59.5498 36.4354 59.8585 36.7346 60.2367 36.7346C60.6149 36.7346 60.9237 36.4354 60.9237 36.0636V30.9896C61.5183 31.2188 62.343 31.6672 63.0288 32.5227C63.7404 33.4102 64.3056 34.7396 64.3056 36.7261C64.3056 37.0979 64.6144 37.3971 64.9926 37.3971C65.3708 37.3971 65.6795 37.0979 65.6795 36.7261C65.6795 36.4882 65.6716 36.2384 65.6536 35.9805C67.1527 36.7054 68.4978 37.7305 69.5829 38.9844C70.8977 40.5038 71.8068 42.3312 72.212 44.269C72.3426 44.8939 72.9049 45.3465 73.5487 45.3464L75.1762 45.3463V50.5869ZM52.7633 31.4354C54.6334 31.4354 56.1527 32.9186 56.1527 34.7389C56.1527 35.1938 56.0552 35.642 55.871 36.0552H49.6555C49.4714 35.6419 49.3737 35.1938 49.3737 34.7389C49.3737 32.9185 50.8931 31.4354 52.7633 31.4354Z" fill="white" stroke="white" stroke-width="0.1"/>
<path d="M64.4116 44.4405L64.4116 44.4405C64.815 43.3857 65.8808 42.6794 67.0621 42.6794C68.2433 42.6794 69.3093 43.3857 69.7125 44.4405C69.7125 44.4405 69.7125 44.4405 69.7125 44.4405L69.6658 44.4583C69.7887 44.7796 69.6211 45.1373 69.2915 45.2571L64.4116 44.4405ZM64.4116 44.4405C64.2784 44.7888 64.4605 45.1751 64.8155 45.3041M64.4116 44.4405L64.8155 45.3041M64.8155 45.3041C65.17 45.4331 65.5657 45.2577 65.6986 44.9101L64.8155 45.3041ZM69.0691 45.3464C69.1488 45.3464 69.2297 45.3328 69.3086 45.3041L65.6986 44.91C65.9011 44.3805 66.4479 44.0214 67.062 44.0214C67.6761 44.0214 68.223 44.3805 68.4255 44.9101C68.5289 45.1805 68.7913 45.3464 69.0691 45.3464Z" fill="white" stroke="white" stroke-width="0.1"/>
<path d="M55.7116 47.0757C55.0601 46.6339 54.2201 46.3632 53.4502 46.1509V43.072C54.0451 43.1491 54.5484 43.3214 54.9047 43.5342C55.2758 43.7558 55.4733 44.0121 55.4733 44.2406C55.4733 44.6124 55.7821 44.9116 56.1603 44.9116C56.5385 44.9116 56.8472 44.6124 56.8472 44.2406C56.8472 43.585 56.4732 42.9989 55.8589 42.5557C55.254 42.1193 54.4127 41.8182 53.4502 41.7204V41.6944C53.4502 41.3226 53.1414 41.0234 52.7632 41.0234C52.385 41.0234 52.0763 41.3226 52.0763 41.6944V41.7204C51.1138 41.8182 50.2724 42.1193 49.6676 42.5557C49.0533 42.9989 48.6792 43.585 48.6792 44.2406C48.6792 45.1681 49.1508 45.799 49.8149 46.2494C50.4663 46.6912 51.3064 46.9619 52.0763 47.1742V50.2531C51.4814 50.176 50.9781 50.0037 50.6218 49.7909C50.2506 49.5693 50.0532 49.313 50.0532 49.0845C50.0532 48.7127 49.7444 48.4135 49.3662 48.4135C48.988 48.4135 48.6792 48.7127 48.6792 49.0845C48.6792 49.7401 49.0533 50.3262 49.6676 50.7694C50.2724 51.2058 51.1138 51.5069 52.0763 51.6047V51.6307C52.0763 52.0025 52.385 52.3017 52.7632 52.3017C53.1414 52.3017 53.4502 52.0025 53.4502 51.6307V51.6047C54.4127 51.5069 55.254 51.2058 55.8589 50.7694C56.4732 50.3262 56.8472 49.7401 56.8472 49.0845C56.8472 48.157 56.3757 47.5261 55.7116 47.0757ZM52.0763 43.072V45.7681C51.3286 45.5358 50.8248 45.3146 50.5067 45.0733C50.1827 44.8275 50.0532 44.5627 50.0532 44.2406C50.0532 44.0121 50.2506 43.7558 50.6218 43.5342C50.9781 43.3214 51.4814 43.1491 52.0763 43.072ZM54.9047 49.791C54.5484 50.0038 54.045 50.1761 53.4502 50.2532V47.557C54.1979 47.7893 54.7016 48.0105 55.0198 48.2519C55.3437 48.4976 55.4733 48.7625 55.4733 49.0846C55.4733 49.3131 55.2758 49.5694 54.9047 49.791Z" fill="white" stroke="white" stroke-width="0.1"/>
<defs>
<filter id="filter0_d" x="0.5" y="0" width="112" height="112" filterUnits="userSpaceOnUse" color-interpolation-filters="sRGB">
<feFlood flood-opacity="0" result="BackgroundImageFix"/>
<feColorMatrix in="SourceAlpha" type="matrix" values="0 0 0 0 0 0 0 0 0 0 0 0 0 0 0 0 0 0 127 0"/>
<feOffset dy="10"/>
<feGaussianBlur stdDeviation="10"/>
<feColorMatrix type="matrix" values="0 0 0 0 0.929412 0 0 0 0 0.752941 0 0 0 0 0.470588 0 0 0 0.2 0"/>
<feBlend mode="normal" in2="BackgroundImageFix" result="effect1_dropShadow"/>
<feBlend mode="normal" in="SourceGraphic" in2="effect1_dropShadow" result="shape"/>
</filter>
</defs>
</svg>
